<svg xmlns="http://www.w3.org/2000/svg" viewBox="0 0 200 200" width="200" height="200" role="img" aria-label="Alphabet">
  <rect width="200" height="200" rx="32" fill="#FAF3E7"/>
  <rect x="32" y="48" width="52" height="64" rx="8" fill="#E76F51" stroke="#264653" stroke-width="5"/>
  <rect x="74" y="68" width="52" height="64" rx="8" fill="#2A9D8F" stroke="#264653" stroke-width="5"/>
  <rect x="116" y="88" width="52" height="64" rx="8" fill="#E9C46A" stroke="#264653" stroke-width="5"/>
  <!-- A -->
  <path d="M46 96 L58 56 L70 96 M50 84 H66" fill="none" stroke="#264653" stroke-width="5" stroke-linecap="round" stroke-linejoin="round"/>
  <!-- B -->
  <path d="M88 80 V120 H104 Q116 120 116 108 Q116 100 108 98 Q116 96 116 88 Q116 80 104 80 Z" fill="none" stroke="#FAF3E7" stroke-width="5" stroke-linejoin="round"/>
  <!-- C -->
  <path d="M158 100 Q158 76 142 76 Q126 76 126 100 Q126 124 142 124 Q152 124 156 116" fill="none" stroke="#264653" stroke-width="5" stroke-linecap="round"/>
</svg>
